<?xml version="1.0" standalone="no"?>
<!DOCTYPE svg PUBLIC "-//W3C//DTD SVG 20010904//EN"
 "http://www.w3.org/TR/2001/REC-SVG-20010904/DTD/svg10.dtd">
<svg version="1.0" xmlns="http://www.w3.org/2000/svg"
 width="1500.000000pt" height="1500.000000pt" viewBox="0 0 1500.000000 1500.000000"
 preserveAspectRatio="xMidYMid meet">
<metadata>
Created by potrace 1.14, written by Peter Selinger 2001-2017
</metadata>
<g transform="translate(0.000000,1500.000000) scale(0.100000,-0.100000)"
fill="#000000" stroke="none">
<path d="M0 7500 l0 -7500 7500 0 7500 0 0 7500 0 7500 -7500 0 -7500 0 0
-7500z m3775 6103 c24 -56 39 -87 95 -205 28 -60 53 -121 56 -138 4 -16 10
-30 15 -30 5 0 9 -9 9 -20 0 -11 5 -20 10 -20 6 0 10 -9 10 -20 0 -11 5 -20
10 -20 6 0 10 -9 10 -20 0 -11 5 -20 10 -20 6 0 10 -9 10 -19 0 -11 4 -22 9
-25 5 -3 12 -17 15 -31 4 -14 19 -53 35 -87 16 -35 36 -81 45 -103 10 -22 26
-57 37 -78 10 -22 19 -45 19 -53 0 -8 5 -14 10 -14 6 0 10 -9 10 -20 0 -11 5
-20 10 -20 6 0 10 -9 10 -20 0 -11 5 -20 10 -20 6 0 10 -6 10 -13 0 -7 11 -37
25 -65 14 -29 25 -56 25 -60 0 -5 11 -32 25 -60 14 -29 25 -56 25 -61 0 -5 14
-35 30 -66 17 -31 30 -63 30 -71 0 -8 5 -14 10 -14 6 0 10 -9 10 -20 0 -11 5
-20 10 -20 6 0 10 -9 10 -19 0 -11 4 -22 8 -25 5 -3 21 -38 37 -78 16 -40 37
-88 47 -106 10 -18 18 -37 18 -43 0 -5 21 -54 46 -107 26 -53 57 -122 71 -152
13 -30 28 -63 34 -72 5 -10 9 -25 9 -33 0 -8 5 -15 10 -15 6 0 10 -9 10 -20 0
-11 5 -20 10 -20 6 0 10 -8 10 -18 0 -10 4 -22 8 -27 5 -6 15 -26 22 -45 8
-19 35 -81 62 -138 26 -56 48 -109 48 -117 0 -7 5 -17 10 -20 6 -3 10 -15 10
-26 0 -10 5 -19 10 -19 6 0 10 -9 10 -20 0 -11 5 -20 10 -20 6 0 10 -9 10 -20
0 -11 5 -20 10 -20 6 0 10 -6 10 -13 0 -7 8 -31 19 -53 10 -21 25 -55 33 -74
9 -19 27 -61 42 -93 14 -32 26 -64 26 -72 0 -8 5 -15 10 -15 6 0 10 -9 10 -19
0 -11 5 -23 10 -26 6 -3 10 -15 10 -26 0 -10 5 -19 10 -19 6 0 10 -9 10 -20 0
-11 5 -20 10 -20 6 0 10 -9 10 -20 0 -11 5 -20 10 -20 6 0 10 -6 10 -13 0 -24
50 -118 60 -112 6 3 10 13 10 21 0 8 5 14 10 14 6 0 10 7 10 15 0 8 9 30 20
50 11 20 20 42 20 50 0 8 5 15 10 15 6 0 10 9 10 20 0 11 5 20 10 20 6 0 10 7
10 16 0 9 7 31 15 50 8 19 21 49 29 67 8 17 23 52 34 77 11 25 26 60 33 78 8
17 17 32 21 32 5 0 8 9 8 19 0 11 5 23 10 26 6 3 10 15 10 26 0 10 5 19 10 19
6 0 10 6 10 13 0 7 8 31 19 53 19 40 42 91 80 178 11 27 21 55 21 62 0 8 5 14
10 14 6 0 10 9 10 20 0 11 5 20 10 20 6 0 10 7 10 15 0 8 9 30 20 50 11 20 20
42 20 50 0 8 5 15 10 15 6 0 10 7 10 15 0 8 16 50 36 93 20 42 47 102 61 132
13 30 28 63 34 72 5 10 9 25 9 33 0 8 5 15 10 15 6 0 10 11 10 25 0 14 5 25
10 25 6 0 10 9 10 20 0 11 5 20 10 20 6 0 10 7 10 15 0 8 11 38 25 67 14 28
25 58 25 65 0 7 5 13 10 13 6 0 10 9 10 20 0 11 5 20 10 20 6 0 10 9 10 20 0
11 5 20 10 20 6 0 10 6 10 13 0 7 11 37 25 65 14 29 25 56 25 62 0 5 9 25 20
45 11 20 20 40 20 45 0 6 11 33 25 62 14 28 25 58 25 65 0 7 5 13 10 13 6 0
10 9 10 20 0 11 5 20 10 20 6 0 10 9 10 20 0 11 5 20 10 20 6 0 10 9 10 20 0
11 5 20 10 20 6 0 10 7 10 15 0 8 4 23 9 33 5 9 13 28 19 42 6 14 22 51 36 83
14 32 26 60 26 62 0 3 11 28 25 57 14 28 25 58 25 65 0 7 5 13 10 13 6 0 10 9
10 20 0 11 5 20 10 20 6 0 10 6 10 13 0 8 11 36 25 63 14 27 25 53 25 57 0 5
20 50 44 100 25 51 50 111 58 135 7 23 16 42 20 42 5 0 8 9 8 20 0 11 5 20 10
20 6 0 10 9 10 20 0 11 5 20 10 20 6 0 10 9 10 20 0 11 8 29 17 40 17 20 27
20 1640 20 1070 0 1624 -3 1628 -10 3 -6 53 -10 114 -10 59 0 111 -4 117 -9 5
-5 50 -11 99 -14 50 -3 137 -13 195 -22 58 -9 125 -19 150 -22 25 -3 49 -9 54
-14 6 -5 27 -9 47 -9 21 0 41 -4 44 -10 3 -5 24 -10 46 -10 21 0 39 -4 39 -10
0 -5 15 -10 34 -10 19 0 38 -4 41 -10 3 -6 19 -10 35 -10 16 0 31 -4 34 -9 3
-4 25 -11 48 -15 47 -7 103 -23 130 -37 10 -5 25 -9 33 -9 8 0 23 -4 33 -9 9
-5 40 -17 67 -26 46 -15 114 -44 157 -66 10 -5 25 -9 33 -9 8 0 15 -4 15 -10
0 -5 9 -10 20 -10 11 0 20 -4 20 -10 0 -5 9 -10 20 -10 11 0 20 -3 20 -7 0 -5
21 -17 48 -27 26 -11 71 -34 100 -53 29 -18 56 -33 60 -33 5 0 17 -8 28 -17
10 -10 31 -24 47 -32 15 -8 27 -18 27 -23 0 -4 5 -8 11 -8 13 0 130 -82 169
-117 14 -13 28 -23 33 -23 4 0 18 -9 30 -21 12 -11 44 -40 71 -62 112 -96 311
-304 391 -407 27 -36 52 -67 55 -70 15 -11 140 -199 140 -209 0 -6 5 -11 10
-11 6 0 10 -7 10 -15 0 -8 5 -15 10 -15 6 0 10 -6 10 -13 0 -7 12 -30 27 -52
36 -54 113 -203 113 -221 0 -8 5 -14 10 -14 6 0 10 -9 10 -20 0 -11 5 -20 10
-20 6 0 10 -9 10 -20 0 -11 5 -20 10 -20 6 0 10 -9 10 -19 0 -11 4 -22 9 -25
5 -3 11 -16 14 -28 2 -13 18 -61 35 -108 17 -47 38 -114 47 -150 9 -36 21 -73
26 -82 5 -10 9 -31 9 -48 0 -16 5 -30 10 -30 6 0 10 -18 10 -40 0 -22 5 -40
10 -40 6 0 10 -20 10 -44 0 -25 5 -48 10 -51 6 -3 10 -28 10 -56 0 -27 4 -49
9 -49 5 0 12 -28 15 -62 3 -35 11 -115 18 -178 17 -153 17 -691 -1 -830 -7
-58 -15 -127 -18 -155 -3 -27 -9 -54 -14 -60 -5 -5 -9 -31 -9 -57 0 -26 -4
-48 -10 -48 -5 0 -10 -20 -10 -45 0 -25 -4 -45 -10 -45 -5 0 -10 -15 -10 -34
0 -19 -4 -38 -10 -41 -5 -3 -10 -19 -10 -35 0 -16 -5 -32 -10 -35 -6 -3 -10
-15 -10 -27 0 -21 -26 -109 -41 -140 -5 -10 -9 -27 -9 -37 0 -11 -4 -22 -9
-25 -4 -3 -11 -19 -14 -35 -6 -29 -32 -92 -68 -164 -10 -22 -19 -45 -19 -54 0
-8 -4 -11 -10 -8 -5 3 -10 -3 -10 -14 0 -12 -4 -21 -10 -21 -5 0 -10 -7 -10
-16 0 -16 -34 -82 -99 -194 -18 -30 -35 -63 -38 -72 -3 -10 -9 -18 -14 -18 -5
0 -9 -7 -9 -15 0 -8 -4 -15 -10 -15 -5 0 -10 -7 -10 -15 0 -8 -4 -15 -10 -15
-5 0 -10 -5 -10 -11 0 -10 -63 -104 -80 -119 -3 -3 -21 -27 -40 -53 -142 -194
-381 -446 -535 -565 -44 -34 -85 -66 -91 -71 -5 -4 -39 -29 -75 -55 -35 -25
-69 -50 -76 -56 -7 -5 -19 -10 -28 -10 -8 0 -15 -4 -15 -10 0 -5 -7 -10 -15
-10 -8 0 -15 -4 -15 -10 0 -5 -7 -10 -15 -10 -8 0 -15 -3 -15 -7 0 -5 -10 -13
-23 -19 -12 -6 -76 -38 -143 -72 -67 -34 -129 -62 -138 -62 -9 0 -16 -4 -16
-10 0 -5 -9 -10 -20 -10 -11 0 -20 -4 -20 -10 0 -5 -9 -10 -20 -10 -11 0 -20
-4 -20 -10 0 -5 -11 -10 -25 -10 -14 0 -25 -4 -25 -10 0 -5 -9 -10 -19 -10
-11 0 -23 -4 -26 -10 -3 -5 -15 -10 -26 -10 -10 0 -27 -4 -37 -9 -19 -10 -84
-32 -147 -50 -22 -6 -64 -17 -94 -26 -30 -8 -67 -15 -83 -15 -15 0 -28 -4 -28
-10 0 -5 -18 -10 -39 -10 -22 0 -43 -4 -46 -10 -3 -6 -24 -10 -45 -10 -21 0
-42 -4 -45 -10 -3 -5 -26 -10 -50 -10 -24 0 -47 -4 -50 -10 -3 -6 -30 -10 -59
-10 -28 0 -56 -4 -61 -9 -6 -5 -39 -12 -75 -15 -36 -3 -103 -9 -150 -15 -203
-22 -399 -30 -927 -37 l-563 -7 0 -2678 0 -2679 -22 -5 c-13 -3 -410 -4 -883
-3 l-860 3 -5 4870 c-3 2790 -9 4855 -14 4836 -4 -19 -17 -50 -27 -68 -11 -19
-19 -38 -19 -43 0 -9 -41 -104 -61 -142 -5 -10 -9 -25 -9 -33 0 -8 -4 -15 -10
-15 -5 0 -10 -9 -10 -20 0 -11 -4 -20 -10 -20 -5 0 -10 -9 -10 -19 0 -11 -4
-23 -10 -26 -5 -3 -10 -15 -10 -26 0 -10 -4 -19 -9 -19 -5 0 -11 -13 -14 -29
-4 -16 -15 -49 -25 -73 -11 -24 -32 -74 -48 -113 -15 -38 -31 -74 -36 -79 -4
-6 -8 -18 -8 -28 0 -10 -4 -18 -10 -18 -5 0 -10 -9 -10 -20 0 -11 -4 -20 -10
-20 -5 0 -10 -11 -10 -25 0 -14 -4 -25 -10 -25 -5 0 -10 -8 -10 -18 0 -10 -4
-22 -8 -27 -5 -6 -15 -26 -22 -45 -13 -34 -33 -83 -51 -125 -4 -11 -20 -46
-34 -79 -14 -32 -25 -65 -25 -72 0 -8 -4 -14 -10 -14 -5 0 -10 -11 -10 -25 0
-14 -4 -25 -10 -25 -5 0 -10 -9 -10 -20 0 -11 -4 -20 -10 -20 -5 0 -10 -9 -10
-19 0 -11 -4 -23 -10 -26 -5 -3 -10 -13 -10 -21 0 -8 -11 -37 -25 -66 -14 -28
-25 -58 -25 -65 0 -7 -4 -13 -10 -13 -5 0 -10 -8 -10 -18 0 -10 -4 -22 -8 -27
-5 -6 -21 -41 -36 -80 -28 -70 -60 -145 -77 -177 -5 -10 -9 -22 -9 -28 0 -5
-11 -33 -24 -62 -13 -29 -30 -68 -37 -85 -8 -18 -17 -33 -21 -33 -5 0 -8 -11
-8 -25 0 -14 -4 -25 -10 -25 -5 0 -10 -9 -10 -19 0 -11 -4 -23 -10 -26 -6 -3
-10 -15 -10 -26 0 -10 -4 -19 -9 -19 -5 0 -12 -18 -16 -40 -4 -22 -11 -40 -16
-40 -5 0 -9 -9 -9 -19 0 -11 -4 -22 -9 -25 -5 -3 -12 -18 -16 -33 -3 -15 -15
-45 -26 -67 -10 -22 -19 -46 -19 -53 0 -7 -4 -13 -10 -13 -5 0 -10 -11 -10
-25 0 -14 -4 -25 -10 -25 -5 0 -10 -9 -10 -20 0 -11 -4 -20 -10 -20 -5 0 -10
-9 -10 -19 0 -11 -4 -23 -10 -26 -6 -3 -10 -15 -10 -25 0 -10 -3 -20 -7 -22
-5 -1 -15 -23 -24 -48 l-16 -45 -608 -3 c-441 -1 -612 1 -621 9 -8 6 -14 20
-14 30 0 11 -4 19 -10 19 -5 0 -10 6 -10 14 0 8 -9 31 -19 53 -39 78 -71 154
-71 168 0 7 -4 17 -10 20 -5 3 -10 15 -10 26 0 10 -4 19 -10 19 -5 0 -10 9
-10 19 0 11 -4 23 -10 26 -5 3 -10 13 -10 22 0 15 -11 42 -60 148 -65 140 -80
177 -80 195 0 11 -4 20 -10 20 -5 0 -10 9 -10 20 0 11 -4 20 -10 20 -5 0 -10
7 -10 15 0 8 -4 23 -9 33 -15 28 -41 89 -41 97 0 3 -13 34 -29 68 -68 147 -81
179 -81 197 0 11 -4 20 -10 20 -5 0 -10 7 -10 15 0 8 -9 30 -20 50 -11 20 -20
42 -20 50 0 8 -4 15 -10 15 -5 0 -10 7 -10 15 0 8 -4 23 -9 33 -19 35 -61 133
-61 141 0 4 -7 22 -16 39 -8 17 -16 41 -17 52 -1 11 -4 20 -7 20 -3 0 -11 15
-18 33 -7 17 -18 40 -23 49 -5 10 -9 25 -9 33 0 8 -4 15 -10 15 -5 0 -10 9
-10 20 0 11 -4 20 -10 20 -5 0 -10 7 -10 15 0 8 -4 23 -9 33 -23 42 -61 132
-61 144 0 8 -4 18 -8 24 -5 5 -21 41 -36 79 -15 39 -32 78 -37 87 -5 10 -9 25
-9 33 0 8 -4 15 -10 15 -5 0 -10 9 -10 20 0 11 -4 20 -10 20 -5 0 -10 7 -10
15 0 8 -4 23 -9 33 -25 47 -61 134 -61 147 0 8 -4 15 -10 15 -5 0 -10 11 -10
25 0 14 -4 25 -10 25 -5 0 -10 9 -10 20 0 11 -4 20 -10 20 -5 0 -10 11 -10 25
0 14 -4 25 -10 25 -5 0 -10 7 -10 16 0 9 -6 30 -14 47 -8 18 -17 39 -19 47 -3
8 -6 -969 -6 -2172 l-1 -2187 -42 -6 c-64 -9 -1591 -1 -1605 8 -10 7 -13 686
-13 3341 0 1833 3 3336 7 3339 3 4 462 7 1019 7 l1013 0 16 -37z"/>
<path d="M8760 10294 l0 -2047 373 7 c393 7 514 12 692 27 171 14 352 44 369
60 6 5 22 9 37 9 15 0 31 5 34 10 3 6 17 10 31 10 13 0 24 5 24 10 0 6 7 10
15 10 8 0 23 4 33 9 9 5 44 21 77 36 116 52 245 118 245 127 0 4 6 8 14 8 8 0
16 3 18 8 2 4 35 30 73 57 72 50 258 230 310 299 17 21 36 45 43 52 6 7 12 17
12 23 0 6 4 11 8 11 5 0 15 12 23 28 8 15 16 29 20 32 11 10 89 173 89 187 0
7 5 13 10 13 6 0 10 11 10 25 0 14 5 25 10 25 6 0 10 11 10 25 0 14 5 25 10
25 6 0 10 12 10 26 0 14 4 23 10 19 6 -4 10 5 10 20 0 14 4 33 9 43 12 23 41
152 41 179 0 12 5 25 10 28 6 3 10 28 10 54 0 26 4 51 9 57 11 11 18 88 28
319 14 300 -8 602 -57 795 -6 25 -17 71 -23 103 -6 31 -14 57 -19 57 -4 0 -8
16 -8 36 0 21 -4 33 -10 29 -6 -4 -10 5 -10 19 0 14 -4 26 -10 26 -5 0 -10 11
-10 25 0 14 -4 25 -10 25 -5 0 -10 8 -10 18 0 22 -117 255 -142 282 -10 10
-18 22 -18 24 0 3 -6 14 -14 23 -8 10 -31 38 -51 63 -88 109 -114 137 -200
207 -49 40 -102 85 -118 98 -15 14 -30 25 -33 25 -3 0 -25 13 -49 30 -54 37
-273 150 -291 150 -8 0 -14 5 -14 10 0 6 -8 10 -18 10 -10 0 -22 4 -27 8 -6 5
-39 17 -75 26 -36 10 -73 22 -82 27 -10 5 -29 9 -42 9 -14 0 -28 5 -31 10 -3
6 -19 10 -34 10 -15 0 -41 4 -57 10 -77 25 -419 45 -966 56 l-298 6 0 -2048z"/>
</g>
</svg>
